<svg width="67" height="66" viewBox="0 0 67 66" fill="none" xmlns="http://www.w3.org/2000/svg">
<path fill-rule="evenodd" clip-rule="evenodd" d="M0.5 33C0.5 14.5905 15.0905 0 33.5 0C42.3405 0 50.2488 2.74879 56.5 9C62.7512 15.2512 66.5 24.1595 66.5 33C66.5 51.4095 51.9095 66 33.5 66C15.0905 66 0.5 51.4095 0.5 33ZM28.7925 44.0363L48.5324 24.763C49.8225 23.5034 49.8225 21.2043 48.5324 19.9447C47.2424 18.6851 44.8875 18.6851 43.5975 19.9447L26.8185 37.2907L21.8835 33.436C21.049 32.6212 20.0625 32.1741 18.9225 32.4723C17.7825 32.7706 17.254 33.2866 16.9485 34.3997L16.9483 34.4006C16.6428 35.5138 16.1142 37.4397 16.9485 38.2543L23.8575 44.0363C24.4752 44.6444 25.9412 45 26.8185 45C27.6957 45 28.1747 44.6444 28.7925 44.0363Z" fill="#FFD129"/>
</svg>
