<svg width="15" height="15" viewBox="0 0 15 15" fill="none" xmlns="http://www.w3.org/2000/svg">
<mask id="path-1-inside-1_2801_1506" fill="white">
<path d="M0.12085 5.73219C-0.114088 5.51493 0.0135305 5.12216 0.331303 5.08448L4.83398 4.55041C4.9635 4.53506 5.07599 4.45373 5.13062 4.3353L7.02979 0.217961C7.16382 -0.0726163 7.57691 -0.0726721 7.71094 0.217905L9.61011 4.33521C9.66473 4.45364 9.77649 4.53519 9.90601 4.55055L14.4089 5.08448C14.7267 5.12216 14.854 5.51505 14.619 5.73231L11.2905 8.81104C11.1947 8.89959 11.1521 9.03139 11.1775 9.15931L12.0609 13.6066C12.1233 13.9204 11.7892 14.1636 11.51 14.0073L7.55349 11.7921C7.43969 11.7284 7.30143 11.7287 7.18762 11.7924L3.23071 14.0068C2.95148 14.1631 2.61684 13.9204 2.6792 13.6066L3.56274 9.15959C3.58815 9.03167 3.54563 8.89957 3.44988 8.81102L0.12085 5.73219Z"/>
</mask>
<path d="M0.331303 5.08448L0.449045 6.07753L0.449089 6.07752L0.331303 5.08448ZM0.12085 5.73219L0.799829 4.99803L0.799801 4.99801L0.12085 5.73219ZM3.44988 8.81102L2.7709 9.54518L2.77093 9.5452L3.44988 8.81102ZM3.56274 9.15959L2.58191 8.9647L2.58191 8.96472L3.56274 9.15959ZM2.6792 13.6066L3.66002 13.8015L3.66003 13.8014L2.6792 13.6066ZM3.23071 14.0068L2.74235 13.1341L2.74227 13.1342L3.23071 14.0068ZM7.18762 11.7924L7.67598 12.665L7.67607 12.665L7.18762 11.7924ZM7.55349 11.7921L8.04203 10.9195L8.04193 10.9195L7.55349 11.7921ZM11.51 14.0073L11.0215 14.8799L11.0215 14.8799L11.51 14.0073ZM12.0609 13.6066L11.08 13.8014L11.0801 13.8015L12.0609 13.6066ZM11.1775 9.15931L12.1583 8.96448L12.1583 8.96442L11.1775 9.15931ZM11.2905 8.81104L11.9694 9.54523L11.9695 9.54517L11.2905 8.81104ZM14.619 5.73231L13.9401 4.99813L13.94 4.99819L14.619 5.73231ZM14.4089 5.08448L14.2912 6.07753L14.2912 6.07753L14.4089 5.08448ZM9.90601 4.55055L10.0238 3.5575L10.0237 3.5575L9.90601 4.55055ZM9.61011 4.33521L10.5182 3.91637L10.5182 3.91636L9.61011 4.33521ZM7.71094 0.217905L6.80288 0.636752L6.80288 0.636758L7.71094 0.217905ZM7.02979 0.217961L7.93784 0.636811L7.93784 0.636807L7.02979 0.217961ZM5.13062 4.3353L4.22256 3.91645L4.22256 3.91646L5.13062 4.3353ZM4.83398 4.55041L4.71624 3.55737L4.7162 3.55737L4.83398 4.55041ZM0.213561 4.09144C-0.951606 4.22959 -1.41954 5.66974 -0.558102 6.46638L0.799801 4.99801C1.19136 5.36011 0.978667 6.01473 0.449045 6.07753L0.213561 4.09144ZM-0.55813 6.46635L2.7709 9.54518L4.12886 8.07686L0.799829 4.99803L-0.55813 6.46635ZM2.77093 9.5452C2.60965 9.39606 2.54 9.17563 2.58191 8.9647L4.54356 9.35448C4.63631 8.88771 4.48161 8.40308 4.12883 8.07684L2.77093 9.5452ZM2.58191 8.96472L1.69837 13.4117L3.66003 13.8014L4.54356 9.35446L2.58191 8.96472ZM1.69837 13.4117C1.46925 14.5648 2.69736 15.4513 3.71915 14.8794L2.74227 13.1342C3.2056 12.8748 3.76442 13.276 3.66002 13.8015L1.69837 13.4117ZM3.71906 14.8794L7.67598 12.665L6.69927 10.9197L2.74235 13.1341L3.71906 14.8794ZM7.67607 12.665C7.48796 12.7703 7.25628 12.7717 7.06505 12.6647L8.04193 10.9195C7.62309 10.685 7.11489 10.6871 6.69918 10.9198L7.67607 12.665ZM7.06495 12.6646L11.0215 14.8799L11.9985 13.1348L8.04203 10.9195L7.06495 12.6646ZM11.0215 14.8799C12.0474 15.4542 13.2699 14.5602 13.0417 13.4117L11.0801 13.8015C10.9766 13.2807 11.531 12.8731 11.9984 13.1347L11.0215 14.8799ZM13.0417 13.4117L12.1583 8.96448L10.1967 9.35414L11.08 13.8014L13.0417 13.4117ZM12.1583 8.96442C12.2005 9.17651 12.1298 9.39688 11.9694 9.54523L10.6115 8.07686C10.2596 8.4023 10.1037 8.88628 10.1967 9.3542L12.1583 8.96442ZM11.9695 9.54517L15.298 6.46643L13.94 4.99819L10.6114 8.07692L11.9695 9.54517ZM15.298 6.46649C16.1578 5.67136 15.694 4.22985 14.5267 4.09144L14.2912 6.07753C13.7594 6.01447 13.5501 5.35874 13.9401 4.99813L15.298 6.46649ZM14.5267 4.09144L10.0238 3.5575L9.78826 5.54359L14.2912 6.07753L14.5267 4.09144ZM10.0237 3.5575C10.2413 3.5833 10.4278 3.72055 10.5182 3.91637L8.70205 4.75406C8.90163 5.18674 9.31169 5.48708 9.78826 5.54359L10.0237 3.5575ZM10.5182 3.91636L8.61899 -0.200949L6.80288 0.636758L8.70205 4.75407L10.5182 3.91636ZM8.61899 -0.200942C8.12741 -1.26668 6.61304 -1.26604 6.12173 -0.200886L7.93784 0.636807C7.71459 1.12081 7.0264 1.12134 6.80288 0.636752L8.61899 -0.200942ZM6.12173 -0.20089L4.22256 3.91645L6.03867 4.75415L7.93784 0.636811L6.12173 -0.20089ZM4.22256 3.91646C4.31442 3.71729 4.50235 3.58273 4.71624 3.55737L4.95173 5.54346C5.42464 5.48739 5.83756 5.19017 6.03867 4.75415L4.22256 3.91646ZM4.7162 3.55737L0.213518 4.09144L0.449089 6.07752L4.95177 5.54345L4.7162 3.55737Z" fill="#FFC000" mask="url(#path-1-inside-1_2801_1506)"/>
</svg>
