<svg width="31" height="30" viewBox="0 0 31 30" fill="none" xmlns="http://www.w3.org/2000/svg">
<path d="M15.4739 24.4385L7.6934 29.1305C7.4034 29.2998 7.11289 29.371 6.82189 29.344C6.53089 29.317 6.26756 29.219 6.03189 29.05C5.79589 28.8807 5.61373 28.6595 5.48539 28.3865C5.3574 28.1135 5.33689 27.8115 5.42389 27.4805L7.48939 18.646L0.620394 12.7C0.363728 12.477 0.200228 12.2187 0.129894 11.925C0.0592277 11.6313 0.0777277 11.346 0.185394 11.069C0.293061 10.7923 0.448228 10.5662 0.650894 10.3905C0.853561 10.2148 1.13056 10.1 1.48189 10.046L10.5469 9.254L14.0664 0.911499C14.1944 0.601166 14.3886 0.371665 14.6489 0.222998C14.9092 0.0743314 15.1842 0 15.4739 0C15.7636 0 16.0386 0.0743314 16.2989 0.222998C16.5592 0.371665 16.7534 0.601166 16.8814 0.911499L20.4009 9.254L29.4659 10.046C29.8172 10.1 30.0942 10.2148 30.2969 10.3905C30.4996 10.5662 30.6547 10.7923 30.7624 11.069C30.8701 11.346 30.8886 11.6313 30.8179 11.925C30.7476 12.2187 30.5841 12.477 30.3274 12.7L23.4584 18.646L25.5239 27.4805C25.6109 27.8115 25.5904 28.1135 25.4624 28.3865C25.3341 28.6595 25.1519 28.8807 24.9159 29.05C24.6802 29.219 24.4169 29.317 24.1259 29.344C23.8349 29.371 23.5444 29.2998 23.2544 29.1305L15.4739 24.4385Z" fill="#F0F0F0"/>
</svg>
