<svg width="24" height="24" viewBox="0 0 24 24" fill="none" xmlns="http://www.w3.org/2000/svg">
<path d="M21.6605 9.25069L20.0005 7.74069L19.1405 7.00069L12.6605 1.25069C12.283 0.919042 11.718 0.919042 11.3405 1.25069L4.86049 7.00069L4.00049 7.74069L2.34049 9.25069C1.9544 9.62152 1.92884 10.2306 2.28249 10.6325C2.63615 11.0344 3.24357 11.0865 3.66049 10.7507L4.00049 10.4507V19.0007C4.00049 20.6575 5.34363 22.0007 7.00048 22.0007H9.00048V16.0007C9.00048 14.3438 10.3436 13.0007 12.0005 13.0007C13.6573 13.0007 15.0005 14.3438 15.0005 16.0007V22.0007H17.0005C18.6573 22.0007 20.0005 20.6575 20.0005 19.0007V10.4507L20.3405 10.7507C20.7549 11.1147 21.3857 11.0744 21.7505 10.6607C22.1145 10.2463 22.0742 9.61545 21.6605 9.25069Z" fill="#FFD129"/>
</svg>
