<svg width="17" height="16" viewBox="0 0 17 16" fill="none" xmlns="http://www.w3.org/2000/svg">
<g clip-path="url(#clip0_2854_2510)">
<path fill-rule="evenodd" clip-rule="evenodd" d="M8.49974 0C11.4958 0 13.9924 2.49664 13.9924 5.49269C13.9924 6.4705 13.6563 7.43484 13.1866 8.30855C12.715 9.18567 12.0908 10.0046 11.4706 10.7019C10.8493 11.4004 10.2215 11.9886 9.73234 12.4042C9.48802 12.6117 9.27417 12.7797 9.10929 12.8987C9.02787 12.9574 8.95159 13.0091 8.88574 13.0486C8.85369 13.0678 8.81464 13.09 8.77311 13.1092C8.75243 13.1187 8.7227 13.1315 8.68721 13.1428C8.6593 13.1517 8.58954 13.1726 8.49974 13.1726C8.40913 13.1726 8.33882 13.1514 8.31082 13.1423C8.27515 13.1308 8.2453 13.1179 8.22459 13.1083C8.18298 13.0888 8.1439 13.0666 8.11186 13.0471C8.04603 13.0072 7.96978 12.9551 7.88841 12.8959C7.72364 12.7762 7.50988 12.607 7.26569 12.3981C6.77679 11.98 6.14927 11.3888 5.52823 10.6884C4.90842 9.98931 4.28451 9.1696 3.81311 8.29454C3.34372 7.42322 3.00705 6.46284 3.00705 5.49269C3.00705 2.49664 5.50369 0 8.49974 0ZM8.49974 7.1331C7.59375 7.1331 6.85931 6.39866 6.85931 5.49269C6.85931 4.58671 7.59375 3.85227 8.49974 3.85227C9.40571 3.85227 10.1401 4.58671 10.1401 5.49269C10.1401 6.39866 9.40571 7.1331 8.49974 7.1331ZM12.0417 11.6082C12.2525 11.3711 12.4635 11.1228 12.6706 10.8648H14.2055C14.4341 10.8648 14.6407 11.001 14.7308 11.2111L16.4425 15.2052C16.5181 15.3818 16.5001 15.5845 16.3943 15.7448C16.2886 15.9052 16.1093 16.0016 15.9173 16.0016H1.08217C0.890091 16.0016 0.710859 15.9052 0.60512 15.7448C0.499381 15.5845 0.481282 15.3818 0.556947 15.2052L2.26868 11.2111C2.35873 11.001 2.56532 10.8648 2.79392 10.8648H4.34287C4.54523 11.1167 4.75123 11.3596 4.95705 11.5917C5.71308 12.4445 6.47714 13.1644 7.07196 13.673C7.36912 13.9271 7.62817 14.132 7.82656 14.2763C7.92473 14.3477 8.01488 14.4092 8.09118 14.4554C8.12844 14.478 8.17191 14.5027 8.21697 14.5237C8.23942 14.5342 8.27076 14.5477 8.30769 14.5596C8.33696 14.5691 8.4083 14.5906 8.49967 14.5906C8.59026 14.5906 8.66105 14.5694 8.69022 14.5602C8.72697 14.5484 8.7582 14.535 8.7806 14.5246C8.8256 14.5038 8.86902 14.4794 8.9063 14.457C8.98262 14.4111 9.07279 14.3501 9.17102 14.2792C9.36952 14.136 9.62867 13.9326 9.92595 13.68C10.521 13.1746 11.2854 12.4584 12.0417 11.6082Z" fill="#8C8C8C"/>
</g>
<defs>
<clipPath id="clip0_2854_2510">
<rect width="16" height="16" fill="white" transform="translate(0.5)"/>
</clipPath>
</defs>
</svg>
