<svg width="18" height="18" viewBox="0 0 18 18" fill="none" xmlns="http://www.w3.org/2000/svg">
<rect x="0.5" y="0.5" width="17" height="17" rx="1.5" fill="#FFD129"/>
<rect x="0.5" y="0.5" width="17" height="17" rx="1.5" stroke="#1F1F1F"/>
<mask id="mask0_3010_4093" style="mask-type:alpha" maskUnits="userSpaceOnUse" x="0" y="0" width="16" height="16">
<rect width="16" height="16" fill="#D9D9D9"/>
</mask>
<g mask="url(#mask0_3010_4093)">
<path d="M7.49961 10.2L11.9246 5.77504C12.0621 5.63754 12.2371 5.56879 12.4496 5.56879C12.6621 5.56879 12.8371 5.63754 12.9746 5.77504C13.1121 5.91254 13.1809 6.08754 13.1809 6.30004C13.1809 6.51254 13.1121 6.68754 12.9746 6.82504L8.02461 11.775C7.87461 11.925 7.69961 12 7.49961 12C7.29961 12 7.12461 11.925 6.97461 11.775L5.02461 9.82504C4.88711 9.68754 4.81836 9.51254 4.81836 9.30004C4.81836 9.08754 4.88711 8.91254 5.02461 8.77504C5.16211 8.63754 5.33711 8.56879 5.54961 8.56879C5.76211 8.56879 5.93711 8.63754 6.07461 8.77504L7.49961 10.2Z" fill="#262626"/>
</g>
</svg>
