<svg width="84" height="84" viewBox="0 0 84 84" fill="none" xmlns="http://www.w3.org/2000/svg">
<path d="M73.255 19.67C71.5116 18.2611 69.3366 17.4949 67.095 17.5H16.905C11.4426 17.5192 7.01924 21.9426 7.00004 27.405V29.75C6.98704 34.5605 9.81456 38.9253 14.21 40.88C15.7856 41.6243 17.5076 42.007 19.25 42H22.75C26.0521 42.0156 29.2155 40.6742 31.5 38.29C33.7846 40.6742 36.948 42.0156 40.25 42H43.75C47.0521 42.0156 50.2155 40.6742 52.5 38.29C54.7846 40.6742 57.948 42.0156 61.25 42H64.75C66.4925 42.007 68.2145 41.6243 69.79 40.88C74.1855 38.9253 77.013 34.5605 77 29.75V27.405C76.9986 24.39 75.6193 21.541 73.255 19.67Z" fill="#D9D9D9"/>
<path d="M61.25 45.4998C58.1309 45.5219 55.0791 44.5941 52.5 42.8398C49.9209 44.5941 46.869 45.5219 43.75 45.4998H40.25C37.1309 45.5219 34.0791 44.5941 31.5 42.8398C28.9209 44.5941 25.869 45.5219 22.75 45.4998H19.25C17.4573 45.5045 15.6786 45.1844 14 44.5548V66.4998C14 72.2988 18.701 76.9998 24.5 76.9998H31.5V59.4998C31.5 53.7009 36.201 48.9998 42 48.9998C47.799 48.9998 52.5 53.7009 52.5 59.4998V76.9998H59.5C65.299 76.9998 70 72.2988 70 66.4998V44.5548C68.324 45.1936 66.5435 45.5141 64.75 45.4998H61.25Z" fill="#D9D9D9"/>
<path d="M67.0951 14.0009C68.6356 14.0036 70.1637 14.276 71.6101 14.8059L71.4001 14.1759C69.912 9.96657 65.9247 7.15865 61.4601 7.17586H22.5401C18.0756 7.15865 14.0883 9.96657 12.6001 14.1759L12.3901 14.8059C13.8366 14.276 15.3647 14.0036 16.9051 14.0009H67.0951Z" fill="#D9D9D9"/>
</svg>
