<svg width="16" height="16" viewBox="0 0 16 16" fill="none" xmlns="http://www.w3.org/2000/svg">
<rect width="16" height="16" rx="8" fill="#262626" fill-opacity="0.6"/>
<mask id="mask0_1703_3160" style="mask-type:alpha" maskUnits="userSpaceOnUse" x="0" y="0" width="16" height="16">
<rect width="16" height="16" fill="#D9D9D9"/>
</mask>
<g mask="url(#mask0_1703_3160)">
<path d="M4.6182 12.0846C4.42421 12.2786 4.10969 12.2786 3.9157 12.0846C3.72171 11.8906 3.72171 11.5761 3.9157 11.3821L7.29779 8.00004L3.9157 4.61796C3.72171 4.42397 3.72171 4.10945 3.9157 3.91546C4.10969 3.72147 4.42421 3.72147 4.6182 3.91546L8.00029 7.29754L11.3824 3.91546C11.5764 3.72147 11.8909 3.72147 12.0849 3.91546C12.2789 4.10945 12.2789 4.42397 12.0849 4.61796L8.70279 8.00004L12.0849 11.3821C12.2789 11.5761 12.2789 11.8906 12.0849 12.0846C11.8909 12.2786 11.5764 12.2786 11.3824 12.0846L8.00029 8.70254L4.6182 12.0846Z" fill="white"/>
</g>
</svg>
