<svg width="24" height="24" viewBox="0 0 24 24" fill="none" xmlns="http://www.w3.org/2000/svg">
<path fill-rule="evenodd" clip-rule="evenodd" d="M20.0005 7.74069L21.6605 9.25069C22.0742 9.61545 22.1145 10.2463 21.7505 10.6607C21.3857 11.0744 20.7549 11.1147 20.3405 10.7507L20.0005 10.4507V19.0007C20.0005 20.6575 18.6573 22.0007 17.0005 22.0007H14.0005C13.4482 22.0007 13.0005 21.553 13.0005 21.0007V16.0007C13.0047 15.7402 12.8995 15.4899 12.7105 15.3107C12.5251 15.1162 12.2692 15.0044 12.0005 15.0007C11.4482 15.0007 11.0005 15.4484 11.0005 16.0007V21.0007C11.0005 21.553 10.5528 22.0007 10.0005 22.0007H7.00048C5.34363 22.0007 4.00049 20.6575 4.00049 19.0007V10.4507L3.66049 10.7507C3.24357 11.0865 2.63615 11.0344 2.28249 10.6325C1.92884 10.2306 1.9544 9.62152 2.34049 9.25069L4.00049 7.74069L4.85049 7.00069L11.3405 1.25069C11.718 0.919042 12.283 0.919042 12.6605 1.25069L19.1505 7.00069L20.0005 7.74069ZM17.0005 20.0007C17.5528 20.0007 18.0005 19.553 18.0005 19.0007V8.67069L12.0005 3.34069L6.00049 8.67069V19.0007C6.00049 19.553 6.4482 20.0007 7.00049 20.0007H9.00049V16.0007C9.00049 14.3438 10.3436 13.0007 12.0005 13.0007C13.6573 13.0007 15.0005 14.3438 15.0005 16.0007V20.0007H17.0005Z" fill="#D9D9D9"/>
</svg>
