<svg width="24" height="24" viewBox="0 0 24 24" fill="none" xmlns="http://www.w3.org/2000/svg">
<path fill-rule="evenodd" clip-rule="evenodd" d="M21.49 5.32C20.9312 4.49327 19.9979 3.9985 19 4H5C3.34315 4 2 5.34315 2 7V17C2 18.6569 3.34315 20 5 20H19C20.6569 20 22 18.6569 22 17V7C22.0013 6.40168 21.8237 5.81662 21.49 5.32ZM4.99999 5.99999H19C19.2872 6.00035 19.5604 6.12421 19.75 6.33999L12 10.87L4.25999 6.32999C4.44905 6.12051 4.71782 6.00066 4.99999 5.99999ZM19 18C19.5523 18 20 17.5523 20 17V8.49004L13 12.59C12.6962 12.7663 12.3513 12.8594 12 12.86C11.6497 12.8625 11.3048 12.7728 11 12.6L4.00003 8.49004V17C4.00003 17.5523 4.44775 18 5.00003 18H19Z" fill="#D9D9D9"/>
</svg>
