<svg width="15" height="15" viewBox="0 0 15 15" fill="none" xmlns="http://www.w3.org/2000/svg">
<path d="M0.12085 5.73219C-0.114088 5.51493 0.0135305 5.12216 0.331303 5.08448L4.83398 4.55041C4.9635 4.53506 5.07599 4.45373 5.13062 4.3353L7.02979 0.217961C7.16382 -0.0726163 7.57691 -0.0726721 7.71094 0.217905L9.61011 4.33521C9.66473 4.45364 9.77649 4.53519 9.90601 4.55055L14.4089 5.08448C14.7267 5.12216 14.854 5.51505 14.619 5.73231L11.2905 8.81104C11.1947 8.89959 11.1521 9.03139 11.1775 9.15931L12.0609 13.6066C12.1233 13.9204 11.7892 14.1636 11.51 14.0073L7.55349 11.7921C7.43969 11.7284 7.30143 11.7287 7.18762 11.7924L3.23071 14.0068C2.95148 14.1631 2.61684 13.9204 2.6792 13.6066L3.56274 9.15959C3.58815 9.03167 3.54563 8.89957 3.44988 8.81102L0.12085 5.73219Z" fill="#FFC000"/>
</svg>
