<svg width="24" height="24" viewBox="0 0 24 24" fill="none" xmlns="http://www.w3.org/2000/svg">
<path d="M8.18945 10.4001C7.73474 9.61248 7.50744 9.21829 7.54141 8.89515C7.57103 8.61329 7.71896 8.35747 7.94824 8.19089C8.21102 7.99997 8.66545 7.99997 9.57427 7.99997H14.4257C15.3345 7.99997 15.7889 7.99997 16.0517 8.19089C16.281 8.35747 16.429 8.61329 16.4586 8.89515C16.4926 9.21829 16.2653 9.61248 15.8106 10.4001L13.3857 14.6001C12.931 15.3877 12.7036 15.7814 12.4067 15.9135C12.1478 16.0288 11.852 16.0288 11.5931 15.9135C11.2964 15.7814 11.0691 15.3877 10.6147 14.6008L8.18945 10.4001Z" fill="#BFBFBF" stroke="#BFBFBF" stroke-linecap="round" stroke-linejoin="round"/>
</svg>
