<svg width="24" height="24" viewBox="0 0 24 24" fill="none" xmlns="http://www.w3.org/2000/svg">
<path d="M8.18945 13.5999C7.73474 14.3875 7.50744 14.7817 7.54141 15.1049C7.57103 15.3867 7.71896 15.6425 7.94824 15.8091C8.21102 16 8.66545 16 9.57427 16H14.4257C15.3345 16 15.7889 16 16.0517 15.8091C16.281 15.6425 16.429 15.3867 16.4586 15.1049C16.4926 14.7817 16.2653 14.3875 15.8106 13.5999L13.3857 9.39993C12.931 8.61234 12.7036 8.21861 12.4067 8.08645C12.1478 7.97118 11.852 7.97118 11.5931 8.08645C11.2964 8.21856 11.0691 8.61229 10.6147 9.39922L8.18945 13.5999Z" fill="#BFBFBF" stroke="#BFBFBF" stroke-linecap="round" stroke-linejoin="round"/>
</svg>
