<svg width="18" height="18" viewBox="0 0 18 18" fill="none" xmlns="http://www.w3.org/2000/svg">
<path fill-rule="evenodd" clip-rule="evenodd" d="M8.98899 1C11.985 1 14.4817 3.49664 14.4817 6.49269C14.4817 7.4705 14.1455 8.43484 13.6758 9.30855C13.2043 10.1857 12.5801 11.0046 11.9599 11.7019C11.3386 12.4004 10.7107 12.9886 10.2216 13.4042C9.97728 13.6117 9.76343 13.7797 9.59855 13.8987C9.51713 13.9574 9.44085 14.0091 9.37499 14.0486C9.34295 14.0678 9.3039 14.09 9.26237 14.1092C9.24169 14.1187 9.21195 14.1315 9.17647 14.1428C9.14856 14.1517 9.0788 14.1726 8.98899 14.1726C8.89839 14.1726 8.82808 14.1514 8.80008 14.1423C8.76441 14.1308 8.73456 14.1179 8.71385 14.1083C8.67224 14.0888 8.63315 14.0666 8.60112 14.0471C8.53529 14.0072 8.45904 13.9551 8.37767 13.8959C8.2129 13.7762 7.99914 13.607 7.75495 13.3981C7.26605 12.98 6.63853 12.3888 6.01749 11.6884C5.39768 10.9893 4.77377 10.1696 4.30237 9.29454C3.83298 8.42322 3.49631 7.46284 3.49631 6.49269C3.49631 3.49664 5.99295 1 8.98899 1ZM8.98899 8.1331C8.08301 8.1331 7.34857 7.39866 7.34857 6.49269C7.34857 5.58671 8.08301 4.85227 8.98899 4.85227C9.89497 4.85227 10.6294 5.58671 10.6294 6.49269C10.6294 7.39866 9.89497 8.1331 8.98899 8.1331ZM12.5309 12.6082C12.7418 12.3711 12.9527 12.1228 13.1598 11.8648H14.6948C14.9234 11.8648 15.13 12.001 15.2201 12.2111L16.9317 16.2052C17.0074 16.3818 16.9893 16.5845 16.8836 16.7448C16.7779 16.9052 16.5986 17.0016 16.4066 17.0016H1.57143C1.37935 17.0016 1.20012 16.9052 1.09438 16.7448C0.988639 16.5845 0.97054 16.3818 1.04621 16.2052L2.75794 12.2111C2.84799 12.001 3.05458 11.8648 3.28318 11.8648H4.83213C5.03449 12.1167 5.24049 12.3596 5.44631 12.5917C6.20234 13.4445 6.9664 14.1644 7.56122 14.673C7.85838 14.9271 8.11743 15.132 8.31582 15.2763C8.41399 15.3477 8.50414 15.4092 8.58043 15.4554C8.6177 15.478 8.66117 15.5027 8.70623 15.5237C8.72867 15.5342 8.76002 15.5477 8.79695 15.5596C8.82622 15.5691 8.89755 15.5906 8.98892 15.5906C9.07952 15.5906 9.15031 15.5694 9.17947 15.5602C9.21623 15.5484 9.24746 15.535 9.26986 15.5246C9.31486 15.5038 9.35827 15.4794 9.39555 15.457C9.47187 15.4111 9.56205 15.3501 9.66027 15.2792C9.85878 15.136 10.1179 14.9326 10.4152 14.68C11.0103 14.1746 11.7746 13.4584 12.5309 12.6082Z" fill="#595959"/>
</svg>
